<?xml version="1.0" encoding="UTF-8"?><svg id="b" xmlns="http://www.w3.org/2000/svg" viewBox="0 0 1200 1200"><g id="c"><rect x="436.99" y="403.21" width="316.14" height="115.55"/><polygon points="383.58 503.51 383.58 418.48 306.18 460.99 383.58 503.51"/><path d="m881.77,403.21h-74.13v115.55l74.67.55c1.64-.55,2.18-1.09,2.73-1.64h0c.54-.55.55-1.64,1.09-2.18v-107.92c-.55-1.64-1.09-2.18-1.64-2.73-.54-.54-1.64-1.64-2.73-1.64Z"/><path d="m600,0C268.63,0,0,268.63,0,600s268.63,600,600,600,600-268.63,600-600S931.37,0,600,0Zm-38.04,893.38l-133.36-3.84h0c-35.64-1.02-69.45-15.8-95.42-41.62-25.9-25.9-40.75-59.79-41.77-95.43-1.03-35.64,11.9-68.73,36.35-93.18,24.45-24.45,57.54-37.37,93.18-36.35l81.9,2.28c14.7.42,27,12.72,27.42,27.42.42,14.7-11.19,26.31-25.89,25.89l-81.91-2.43c-42.77-1.23-78.98,34.97-77.74,77.74.62,21.39,9.51,41.67,25.09,57.26,15.58,15.58,35.87,24.48,57.26,25.09l133.36,3.84c44.18,1.19,79.01-33.64,77.74-77.74-.42-14.7,11.19-26.31,25.89-25.89,14.7.42,27,12.72,27.42,27.42,2.11,73.51-56.01,131.64-129.53,129.53Zm243.85,7.02l-81.98-2.36c-14.7-.42-27-12.72-27.42-27.42-.42-14.7,11.19-26.31,25.89-25.89l81.98,2.36c44.18,1.19,79.01-33.64,77.74-77.74-.62-21.39-9.51-41.67-25.09-57.26-15.58-15.58-35.87-24.48-57.26-25.09l-133.36-3.84c-44.11-1.27-79.01,33.64-77.74,77.74.42,14.7-11.19,26.31-25.89,25.89h0c-14.7-.42-27-12.72-27.42-27.42-.98-36.76,12.98-69.67,36.42-93.1,23.44-23.44,56.35-37.41,93.1-36.42l133.36,3.84c35.64,1.03,69.53,15.87,95.43,41.77,25.97,25.97,40.75,59.79,41.77,95.43,2.11,73.51-56.01,131.64-129.53,129.53Zm134.29-385.46c0,15.26-6,29.98-16.9,40.88-10.9,10.9-25.62,16.9-40.88,16.9h-469.85c-9.81,0-19.08-2.73-27.8-7.08l-147.17-80.67c-2.18-1.09-4.36-3.27-6-4.91-4.91-4.91-8.18-11.45-8.18-19.08.54-10.36,5.45-19.62,14.17-23.98l147.17-80.67c8.72-4.36,17.99-7.08,27.8-7.08h469.85c15.26,0,29.98,6,40.88,16.9h0c10.9,10.9,16.9,25.62,16.9,40.88v107.92Z"/></g></svg>